# AST/ASF file generated using VICON BodyLanguage
# -----------------------------------------------
:version 1.10
:name VICON
:units
  mass 1.0
  length 0.45
  angle deg
:documentation
   .ast/.asf automatically generated from VICON data using
   VICON BodyBuilder and BodyLanguage model FoxedUp or BRILLIANT.MOD
:root
   order TX TY TZ RX RY RZ
   axis XYZ
   position 0 0 0  
   orientation 0 0 0 
:bonedata
  begin
     id 1 
     name lhipjoint
     direction 0.722297 -0.617336 0.311742 
     length 2.6635 
     axis 0 0 0  XYZ
  end
  begin
     id 2 
     name lfemur
     direction 0.34202 -0.939693 0  
     length 7.39349  
     axis 0 0 20  XYZ
    dof rx ry rz
    limits (-160.0 20.0)
           (-70.0 70.0)
           (-60.0 70.0)
  end
  begin
     id 3 
     name ltibia
     direction 0.34202 -0.939693 0   
     length 7.36294   
     axis 0 0 20   XYZ
    dof rx
    limits (-10.0 170.0)
  end
  begin
     id 4 
     name lfoot
     direction 0.104879 -0.288152 0.951824   
     length 2.16981   
     axis -90 7.62852e-016 20   XYZ
    dof rx rz
    limits (-45.0 90.0)
           (-70.0 20.0)
  end
  begin
     id 5 
     name ltoes
     direction 1.53586e-011 -4.21895e-011 1   
     length 1.08218   
     axis -90 7.62852e-016 20   XYZ
    dof rx
    limits (-90.0 20.0)
  end
  begin
     id 6 
     name rhipjoint
     direction -0.75102 -0.589393 0.297631   
     length 2.78977  
     axis 0 0 0  XYZ 
  end
  begin
     id 7 
     name rfemur
     direction -0.34202 -0.939693 0   
     length 7.46076   
     axis 0 0 -20   XYZ
    dof rx ry rz
    limits (-160.0 20.0)
           (-70.0 70.0)
           (-70.0 60.0)
  end
  begin
     id 8 
     name rtibia
     direction -0.34202 -0.939693 0   
     length 7.31726   
     axis 0 0 -20   XYZ
    dof rx
    limits (-10.0 170.0)
 end
 begin
     id 9 
     name rfoot
     direction -0.107991 -0.296704 0.948844   
     length 2.09388  
     axis -90 -7.62852e-016 -20   XYZ
    dof rx rz
    limits (-45.0 90.0)
           (-20.0 70.0)
  end
  begin
     id 10 
     name rtoes
     direction -1.53559e-011 -4.21911e-011 1   
     length 1.04433   
     axis -90 -7.62852e-016 -20   XYZ
    dof rx
    limits (-90.0 20.0)
  end
  begin
     id 11 
     name lowerback
     direction 0.0165164 0.98272 0.184358   
     length 1.71896   
     axis 0 0 0   XYZ
    dof rx ry rz
    limits (-20.0 45.0)
           (-30.0 30.0)
           (-30.0 30.0)
  end
  begin
     id 12 
     name upperback
     direction -0.00887249 0.992297 0.123566   
     length 1.71504   
     axis 0 0 0   XYZ
    dof rx ry rz
    limits (-20.0 45.0)
           (-30.0 30.0)
           (-30.0 30.0)
  end
  begin
     id 13 
     name thorax
     direction -0.0157026 0.998908 0.0440032   
     length 1.77022   
     axis 0 0 0   XYZ
    dof rx ry rz
    limits (-20.0 45.0)
           (-30.0 30.0)
           (-30.0 30.0)
  end
  begin
     id 14 
     name lowerneck
     direction -0.0238856 0.998137 0.0561411   
     length 1.89341   
     axis 0 0 0   XYZ
    dof rx ry rz
    limits (-20.0 45.0)
           (-30.0 30.0)
           (-30.0 30.0)
  end
  begin
     id 15 
     name upperneck
     direction 0.0276574 0.952253 -0.304056   
     length 1.86999   
     axis 0 0 0   XYZ
    dof rx ry rz
    limits (-20.0 45.0)
           (-30.0 30.0)
           (-30.0 30.0)
  end
  begin
     id 16
     name head
     direction 0.00800083 0.994258 -0.106712  
     length 1.91492  
     axis 0 0 0   XYZ
    dof rx ry rz
    limits (-20.0 45.0)
           (-30.0 30.0)
           (-30.0 30.0)
  end
  begin
     id 17 
     name lclavicle
     direction 0.97203 0.225407 0.06595  
     length 3.34889  
     axis 0 0 0   XYZ
    dof ry rz
    limits (-20.0 10.0)
           (0.0 20.0)
  end
  begin
     id 18 
     name lhumerus
     direction 1 -4.48973e-011 2.20267e-027   
     length 4.85645   
     axis 180 -30 -90   XYZ
    dof rx ry rz
    limits (-60.0 90.0)
           (-90.0 90.0)
           (-90.0 90.0)
  end
  begin
     id 19
     name lradius
     direction 1 -4.4897e-011 4.60472e-027   
     length 2.79874   
     axis 180 -30 -90   XYZ
    dof rx
    limits (-10.0 170.0)
  end
  begin
     id 20
     name lwrist
     direction 1 -4.48952e-011 1.14928e-026   
     length 1.39937   
     axis -6.29373e-015 90 90   XYZ
    dof ry
    limits (-180.0 0.0)
 end
  begin
     id 21 
     name lhand
     direction 1 -4.48967e-011 2.29886e-026   
     length 0.573398   
     axis -1.46689e-014 90 90   XYZ
    dof rx rz
    limits (-90.0 90.0)
           (-45.0 45.0)
  end
  begin
     id 22 
     name lfingers
     direction 1 -4.48955e-011 4.59726e-026   
     length 0.462289   
     axis -2.93383e-014 90 90   XYZ
    dof rx
    limits (0.0 90.0)
  end
  begin
     id 23
     name lthumb
     direction 0.707107 -6.34866e-011 0.707107   
     length 0.663757   
     axis -90 45 5.69224e-014   XYZ
    dof rx rz
    limits (-45.0 45.0)
           (-45.0 45.0)
  end
  begin
     id 24 
     name rclavicle
     direction -0.981571 0.157346 0.108443   
     length 3.35257  
     axis 0 0 0   XYZ 
    dof ry rz
    limits (-10.0 20.0)
           (-20.0 0.0)
  end
  begin
     id 25 
     name rhumerus
     direction -1 -4.48967e-011 8.58308e-029  
     length 4.67018   
     axis 180 30 90   XYZ
    dof rx ry rz
    limits (-90.0 60.0)
           (-90.0 90.0)
           (-90.0 90.0)
  end
  begin
     id 26 
     name rradius
     direction -1 -4.48958e-011 4.52548e-027   
     length 2.65534   
     axis 180 30 90   XYZ
    dof rx
    limits (-10.0 170.0)
  end
  begin
     id 27 
     name rwrist
     direction -1 -4.48977e-011 1.14952e-026   
     length 1.32767   
     axis -6.29373e-015 -90 -90   XYZ
    dof ry
    limits (-180.0 0.0)
  end
  begin
     id 28
     name rhand
     direction -1 -4.48924e-011 2.29804e-026   
     length 0.594069   
     axis -1.46689e-014 -90 -90   XYZ
    dof rx rz
    limits (-90.0 90.0)
           (-45.0 45.0)
  end
  begin
     id 29
     name rfingers
     direction -1 -4.48998e-011 4.59888e-026   
     length 0.478954   
     axis -2.93383e-014 -90 -90   XYZ
    dof rx
    limits (0.0 90.0)
  end
  begin
     id 30
     name rthumb
     direction -0.707107 -6.34933e-011 0.707107   
     length 0.687685   
     axis -90 -45 -5.69224e-014   XYZ
    dof rx rz
    limits (-45.0 45.0)
           (-45.0 45.0)
  end
:hierarchy
  begin
    root lhipjoint rhipjoint lowerback
    lhipjoint lfemur
    lfemur ltibia
    ltibia lfoot
    lfoot ltoes
    rhipjoint rfemur
    rfemur rtibia
    rtibia rfoot
    rfoot rtoes
    lowerback upperback
    upperback thorax
    thorax lowerneck lclavicle rclavicle
    lowerneck upperneck
    upperneck head
    lclavicle lhumerus
    lhumerus lradius
    lradius lwrist
    lwrist lhand lthumb
    lhand lfingers
    rclavicle rhumerus
    rhumerus rradius
    rradius rwrist
    rwrist rhand rthumb
    rhand rfingers
  end

#!OML:ASF E:\pregnant2\Project 1\Capture day 1\Session 1\pregnant2.ASF
:FULLY-SPECIFIED
:DEGREES
273
root -4.27195 15.7713 20.0874 28.1488 5.77595 -0.722812
lowerback -20.3259 0.907672 1.76154
upperback -16.1384 1.01761 -0.741559
thorax -6.28615 0.354739 -1.64669
lowerneck -15.6527 -2.76235 -3.48792
upperneck 35.3035 -3.7918 2.12961
head 15.0192 -1.77713 0.851999
rclavicle -1.38155e-014 -7.55382e-015
rhumerus -22.5888 5.93279 -79.2586
rradius 115.584
rwrist 37.122
rhand -5.80261 -8.38321
rfingers 7.12502
rthumb 20.0221 -37.3716
lclavicle -1.38155e-014 -7.55382e-015
lhumerus -26.854 -1.98929 79.8395
lradius 118.446
lwrist -28.2958
lhand -9.45983 15.4828
lfingers 7.12502
lthumb 16.5038 44.8009
rfemur -56.5545 -3.50545 20.2638
rtibia 61.5274
rfoot -27.0983 -13.5881
rtoes -14.3446
lfemur -57.181 6.56543 -20.1058
ltibia 60.9
lfoot -27.1038 5.688
ltoes -13.4869
274
root -4.27102 15.7706 20.0864 28.1463 5.77321 -0.725278
lowerback -20.3247 0.909057 1.75726
upperback -16.1385 1.0201 -0.740513
thorax -6.2868 0.356474 -1.64282
lowerneck -15.6571 -2.76593 -3.48623
upperneck 35.3131 -3.80169 2.13947
head 15.0254 -1.77963 0.854092
rclavicle -5.66536e-015 -7.15625e-015
rhumerus -22.5848 5.92305 -79.2531
rradius 115.588
rwrist 37.1232
rhand -5.8016 -8.38033
rfingers 7.12502
rthumb 20.0231 -37.3686
lclavicle -5.66536e-015 -7.15625e-015
lhumerus -26.8489 -1.99695 79.8322
lradius 118.451
lwrist -28.2902
lhand -9.45685 15.4835
lfingers 7.12502
lthumb 16.5066 44.8014
rfemur -56.5607 -3.50742 20.2631
rtibia 61.5355
rfoot -27.0996 -13.5832
rtoes -14.3395
lfemur -57.1879 6.56576 -20.1081
ltibia 60.9111
lfoot -27.1076 5.69103
ltoes -13.4827
275
root -4.27006 15.7696 20.0853 28.143 5.76997 -0.726112
lowerback -20.3254 0.911163 1.75225
upperback -16.1367 1.02353 -0.741599
thorax -6.28423 0.358673 -1.64065
lowerneck -15.6617 -2.76966 -3.48132
upperneck 35.3211 -3.81318 2.15024
head 15.0309 -1.78226 0.855716
rclavicle -1.49089e-014 -1.09332e-014
rhumerus -22.5787 5.9103 -79.2487
rradius 115.59
rwrist 37.1269
rhand -5.79763 -8.37583
rfingers 7.12502
rthumb 20.0269 -37.3637
lclavicle -1.49089e-014 -1.09332e-014
lhumerus -26.8406 -2.00786 79.8251
lradius 118.453
lwrist -28.2841
lhand -9.44928 15.4821
lfingers 7.12502
lthumb 16.5139 44.7993
rfemur -56.5673 -3.51061 20.2609
rtibia 61.5478
rfoot -27.1034 -13.5794
rtoes -14.3326
lfemur -57.1946 6.56579 -20.1123
ltibia 60.9248
lfoot -27.1134 5.69543
ltoes -13.4828
276
root -4.26907 15.7686 20.0843 28.1381 5.76712 -0.725285
lowerback -20.3249 0.913066 1.74663
upperback -16.1343 1.02678 -0.7437
thorax -6.28144 0.360778 -1.63927
lowerneck -15.6646 -2.77293 -3.48017
upperneck 35.3287 -3.82512 2.16729
head 15.0361 -1.78469 0.860574
rclavicle -4.5472e-014 -6.75868e-015
rhumerus -22.5732 5.89746 -79.2446
rradius 115.591
rwrist 37.133
rhand -5.79518 -8.37141
rfingers 7.12502
rthumb 20.0292 -37.3591
lclavicle -4.5472e-014 -6.75868e-015
lhumerus -26.8324 -2.02122 79.8176
lradius 118.454
lwrist -28.2767
lhand -9.43803 15.4791
lfingers 7.12502
lthumb 16.5248 44.7954
rfemur -56.5725 -3.51453 20.2565
rtibia 61.5622
rfoot -27.109 -13.576
rtoes -14.3269
lfemur -57.1999 6.56435 -20.1178
ltibia 60.9394
lfoot -27.1189 5.69952
ltoes -13.484
277
root -4.26811 15.7676 20.0833 28.1326 5.76275 -0.721781
lowerback -20.3308 0.909412 1.73388
upperback -16.1295 1.02363 -0.741715
thorax -6.27308 0.360554 -1.63029
lowerneck -15.67 -2.77528 -3.46318
upperneck 35.3374 -3.83271 2.16237
head 15.0412 -1.78626 0.854177
rclavicle 1.51076e-014 -1.59028e-014
rhumerus -22.5697 5.89107 -79.2461
rradius 115.594
rwrist 37.1413
rhand -5.78245 -8.36103
rfingers 7.12502
rthumb 20.0415 -37.3474
lclavicle 1.51076e-014 -1.59028e-014
lhumerus -26.8301 -2.02315 79.8057
lradius 118.457
lwrist -28.2724
lhand -9.42433 15.4736
lfingers 7.12502
lthumb 16.5379 44.7889
rfemur -56.5783 -3.51811 20.2487
rtibia 61.5791
rfoot -27.1154 -13.5741
rtoes -14.3232
lfemur -57.2044 6.56247 -20.1262
ltibia 60.955
lfoot -27.1252 5.70492
ltoes -13.4861
278
root -4.26717 15.7665 20.0823 28.1269 5.75812 -0.718269
lowerback -20.3348 0.906746 1.72224
upperback -16.1236 1.02161 -0.741181
thorax -6.26438 0.360724 -1.62333
lowerneck -15.6805 -2.7774 -3.44932
upperneck 35.3474 -3.84168 2.16514
head 15.0484 -1.78768 0.851254
rclavicle 5.36719e-015 7.7526e-015
rhumerus -22.5641 5.88242 -79.2483
rradius 115.594
rwrist 37.1497
rhand -5.76838 -8.34825
rfingers 7.12502
rthumb 20.055 -37.3332
lclavicle 5.36719e-015 7.7526e-015
lhumerus -26.8236 -2.02627 79.7939
lradius 118.458
lwrist -28.2703
lhand -9.40557 15.4701
lfingers 7.12502
lthumb 16.556 44.7839
rfemur -56.5847 -3.52085 20.2407
rtibia 61.5976
rfoot -27.1222 -13.5743
rtoes -14.323
lfemur -57.2095 6.56068 -20.1343
ltibia 60.9725
lfoot -27.1319 5.70966
ltoes -13.4849
279
root -4.26625 15.7652 20.0812 28.1206 5.75273 -0.715327
lowerback -20.3365 0.903781 1.71114
upperback -16.1182 1.01915 -0.740532
thorax -6.25726 0.360595 -1.61666
lowerneck -15.69 -2.7797 -3.4359
upperneck 35.3569 -3.85107 2.16854
head 15.0552 -1.78927 0.848604
rclavicle 8.49804e-015 -1.37161e-014
rhumerus -22.5604 5.87609 -79.2532
rradius 115.595
rwrist 37.1541
rhand -5.7517 -8.33549
rfingers 7.12502
rthumb 20.071 -37.3188
lclavicle 8.49804e-015 -1.37161e-014
lhumerus -26.8181 -2.02813 79.7814
lradius 118.461
lwrist -28.2685
lhand -9.38845 15.4668
lfingers 7.12502
lthumb 16.5725 44.7792
rfemur -56.5921 -3.52276 20.2331
rtibia 61.6182
rfoot -27.1286 -13.5746
rtoes -14.3245
lfemur -57.215 6.56008 -20.1421
ltibia 60.9922
lfoot -27.1391 5.71428
ltoes -13.4807
